<svg t="1787619414195" class="icon" viewBox="0 0 1024 1024" version="1.1" xmlns="http://www.w3.org/2000/svg" p-id="7082" width="200" height="200"><path d="M512 0C229.333333 0 0.213333 229.034667 0 511.658667v396.202666A116.394667 116.394667 0 0 0 116.394667 1024h395.818666C794.88 1023.872 1024 794.709333 1024 512c0-282.752-229.248-512-512-512z m196.053333 237.952c-16.170667 0-22.058667-3.114667-45.738666-3.114667a126.848 126.848 0 0 0-126.848 126.634667v110.208a17.92 17.92 0 0 0 17.92 17.877333h83.328c31.061333 0 56.149333 24.746667 56.149333 55.893334 0 31.317333-25.344 55.978667-56.746667 55.978666H535.466667v127.36a240.298667 240.298667 0 0 1-240.256 240.298667c-20.138667 0-34.474667-2.261333-53.12-7.125333-27.178667-7.125333-49.365333-29.397333-49.365334-55.296 0-31.317333 22.741333-54.144 56.746667-54.144 16.128 0 22.016 3.114667 45.738667 3.114666 69.973333 0 126.72-56.661333 126.805333-126.634666v-110.208a17.92 17.92 0 0 0-17.92-17.877334H320.768c-31.018667 0-56.106667-24.746667-56.106667-55.893333 0-31.36 25.344-55.978667 56.746667-55.978667H421.973333V361.642667a240.298667 240.298667 0 0 1 240.298667-240.298667c20.138667 0 34.432 2.304 53.077333 7.168 27.178667 7.125333 49.408 29.397333 49.408 55.296 0 31.317333-22.741333 54.144-56.746666 54.144z" fill="#4F6DB1" p-id="7083"></path></svg>